<?xml version="1.0" encoding="utf-8"?>
<!-- Generator: Adobe Illustrator 23.0.2, SVG Export Plug-In . SVG Version: 6.00 Build 0)  -->
<svg version="1.1" id="Camada_1" xmlns="http://www.w3.org/2000/svg" xmlns:xlink="http://www.w3.org/1999/xlink" x="0px" y="0px"
	 viewBox="0 0 542 354" style="enable-background:new 0 0 542 354;" xml:space="preserve">
<style type="text/css">
	.st0{opacity:0.4;fill:url(#SVGID_1_);enable-background:new    ;}
	.st1{opacity:0.4;fill:url(#SVGID_2_);enable-background:new    ;}
	.st2{opacity:0.22;fill:url(#SVGID_3_);}
	.st3{opacity:0.22;fill:url(#SVGID_4_);}
	.st4{opacity:0.22;fill:url(#SVGID_5_);}
	.st5{opacity:0.1;fill:url(#SVGID_6_);}
	.st6{opacity:0.21;fill:url(#SVGID_7_);}
	.st7{opacity:0.21;fill:url(#SVGID_8_);}
</style>
<linearGradient id="SVGID_1_" gradientUnits="userSpaceOnUse" x1="-277.7815" y1="838.0034" x2="472.8147" y2="838.0034" gradientTransform="matrix(-4.674958e-04 -0.4717 -0.4655 4.613282e-04 434.1107 222.6273)">
	<stop  offset="8.379889e-03" style="stop-color:#F3F3C5;stop-opacity:0.1"/>
	<stop  offset="0.1153" style="stop-color:#F1F1C1;stop-opacity:0.2206"/>
	<stop  offset="0.2213" style="stop-color:#EBEBB5;stop-opacity:0.3403"/>
	<stop  offset="0.327" style="stop-color:#E0E0A1;stop-opacity:0.4596"/>
	<stop  offset="0.4326" style="stop-color:#D1D285;stop-opacity:0.5788"/>
	<stop  offset="0.537" style="stop-color:#BEBF62;stop-opacity:0.6968"/>
	<stop  offset="0.6285" style="stop-color:#AAAB3C;stop-opacity:0.8"/>
	<stop  offset="0.6289" style="stop-color:#AAAB3C;stop-opacity:0.7992"/>
	<stop  offset="0.671" style="stop-color:#C1C166;stop-opacity:0.72"/>
	<stop  offset="0.7146" style="stop-color:#D4D48A;stop-opacity:0.6377"/>
	<stop  offset="0.7609" style="stop-color:#E3E4A8;stop-opacity:0.5505"/>
	<stop  offset="0.8097" style="stop-color:#F0F0BE;stop-opacity:0.4585"/>
	<stop  offset="0.8623" style="stop-color:#F8F8CE;stop-opacity:0.3595"/>
	<stop  offset="0.9213" style="stop-color:#FDFDD8;stop-opacity:0.2483"/>
	<stop  offset="1" style="stop-color:#FFFFDB;stop-opacity:0.1"/>
</linearGradient>
<path class="st0" d="M88,354c-2-3.6-10.2-6.8-13.1-7.7c-53.3-17.3-53.5-24.4-42.3-30.9C54,303,58.8,300.7,64.8,292.5
	C87.9,260.6,43.3,231,43.3,231c-51-32-31.6-46.6-19.8-52.7C50,164.6,55,159.5,60.3,154.7C95.7,123,45.7,98.3,31.4,88.8
	c-36.5-24.2-16.5-45.2-5.7-49c28.7-10,37.5-8.8,37.5-19.9C63.2-2.7,12.6-0.4,0,0.6L0.3,354H88z"/>
<linearGradient id="SVGID_2_" gradientUnits="userSpaceOnUse" x1="-275.8817" y1="844.6077" x2="486.1264" y2="844.6077" gradientTransform="matrix(-4.604429e-04 -0.4646 -0.4655 4.613326e-04 434.1135 225.4243)">
	<stop  offset="5.586592e-03" style="stop-color:#F3F3C5;stop-opacity:0.1"/>
	<stop  offset="8.990697e-02" style="stop-color:#EEEEBB;stop-opacity:0.1948"/>
	<stop  offset="0.2309" style="stop-color:#E0E0A2;stop-opacity:0.3532"/>
	<stop  offset="0.4113" style="stop-color:#CACA78;stop-opacity:0.5559"/>
	<stop  offset="0.6222" style="stop-color:#ABAC3E;stop-opacity:0.7929"/>
	<stop  offset="0.6285" style="stop-color:#AAAB3C;stop-opacity:0.8"/>
	<stop  offset="0.7546" style="stop-color:#CDCD7D;stop-opacity:0.8"/>
	<stop  offset="0.8677" style="stop-color:#E8E8B0;stop-opacity:0.8"/>
	<stop  offset="0.9527" style="stop-color:#F9F9CF;stop-opacity:0.8"/>
	<stop  offset="1" style="stop-color:#FFFFDB;stop-opacity:0.8"/>
</linearGradient>
<path class="st1" d="M29.6,354c35.5-10.1,15.9-21.4,15.9-21.4C11.3,300.4,48,290,57.8,284.3c42.1-24.5,17.9-49.8,7.5-58.4
	c-13.7-11.4-34.7-19.7-44-29.7c-29.3-31.5-21.7-58.4-9.8-69.3C43,98,42.2,63,42.2,63C41.8,13.9,8.3,2.2,0,0l0.4,354H29.6z"/>
<linearGradient id="SVGID_3_" gradientUnits="userSpaceOnUse" x1="-231.5011" y1="105.0725" x2="-222.5026" y2="105.0725" gradientTransform="matrix(-0.9845 -0.1753 0.1753 -0.9845 136.1468 114.4125)">
	<stop  offset="0.2851" style="stop-color:#AAAB3C;stop-opacity:0.6"/>
	<stop  offset="0.5135" style="stop-color:#C9CA84;stop-opacity:0.7278"/>
	<stop  offset="0.745" style="stop-color:#E6E6C6;stop-opacity:0.8573"/>
	<stop  offset="0.9136" style="stop-color:#F8F8EF;stop-opacity:0.9516"/>
	<stop  offset="1" style="stop-color:#FFFFFF"/>
</linearGradient>
<path class="st2" d="M373.6,50c0.4-2.4,2.8-4.1,5.2-3.6c2.4,0.4,4.1,2.8,3.6,5.2c-0.4,2.4-2.8,4.1-5.2,3.6
	C374.8,54.7,373.2,52.4,373.6,50z"/>
<linearGradient id="SVGID_4_" gradientUnits="userSpaceOnUse" x1="-257.1895" y1="44.3538" x2="-252.6903" y2="44.3538" gradientTransform="matrix(-0.9845 -0.1753 0.1753 -0.9845 136.1468 114.4125)">
	<stop  offset="0.2851" style="stop-color:#AAAB3C;stop-opacity:0.6"/>
	<stop  offset="0.5135" style="stop-color:#C9CA84;stop-opacity:0.7278"/>
	<stop  offset="0.745" style="stop-color:#E6E6C6;stop-opacity:0.8573"/>
	<stop  offset="0.9136" style="stop-color:#F8F8EF;stop-opacity:0.9516"/>
	<stop  offset="1" style="stop-color:#FFFFFF"/>
</linearGradient>
<path class="st3" d="M392.7,115c0.2-1.2,1.4-2,2.6-1.8c1.2,0.2,2,1.4,1.8,2.6c-0.2,1.2-1.4,2-2.6,1.8
	C393.3,117.4,392.5,116.3,392.7,115z"/>
<linearGradient id="SVGID_5_" gradientUnits="userSpaceOnUse" x1="-285.9247" y1="21.6281" x2="-275.693" y2="21.6281" gradientTransform="matrix(-0.9845 -0.1753 0.1753 -0.9845 136.1468 114.4125)">
	<stop  offset="0.2851" style="stop-color:#AAAB3C;stop-opacity:0.6"/>
	<stop  offset="0.5135" style="stop-color:#C9CA84;stop-opacity:0.7278"/>
	<stop  offset="0.745" style="stop-color:#E6E6C6;stop-opacity:0.8573"/>
	<stop  offset="0.9136" style="stop-color:#F8F8EF;stop-opacity:0.9516"/>
	<stop  offset="1" style="stop-color:#FFFFFF"/>
</linearGradient>
<path class="st4" d="M411.4,141.4c0.5-2.8,3.2-4.6,5.9-4.1c2.8,0.5,4.6,3.2,4.1,5.9c-0.5,2.8-3.2,4.6-5.9,4.1
	C412.7,146.9,410.9,144.2,411.4,141.4z"/>
<linearGradient id="SVGID_6_" gradientUnits="userSpaceOnUse" x1="-307.5159" y1="-99.6622" x2="-297.2841" y2="-99.6622" gradientTransform="matrix(-0.9845 -0.1753 0.1753 -0.9845 136.1468 114.4125)">
	<stop  offset="0" style="stop-color:#FFFFFF"/>
	<stop  offset="1" style="stop-color:#AAAB3C;stop-opacity:0.6"/>
</linearGradient>
<path class="st5" d="M411.4,264.6c0.5-2.8,3.2-4.6,5.9-4.1c2.8,0.5,4.6,3.2,4.1,5.9c-0.5,2.8-3.2,4.6-5.9,4.1
	C412.7,270.1,410.9,267.4,411.4,264.6z"/>
<linearGradient id="SVGID_7_" gradientUnits="userSpaceOnUse" x1="-347.3141" y1="-102.7898" x2="-334.655" y2="-102.7898" gradientTransform="matrix(-0.3532 0.9356 -0.9356 -0.3532 184.4059 573.718)">
	<stop  offset="0" style="stop-color:#FFFFFF"/>
	<stop  offset="1" style="stop-color:#AAAB3C;stop-opacity:0.6"/>
</linearGradient>
<path class="st6" d="M398.8,296.9c-3.3-1.2-4.9-4.9-3.7-8.2c1.2-3.3,4.9-4.9,8.2-3.7c3.3,1.2,4.9,4.9,3.7,8.2
	C405.7,296.5,402,298.2,398.8,296.9z"/>
<linearGradient id="SVGID_8_" gradientUnits="userSpaceOnUse" x1="-340.6684" y1="-131.3359" x2="-333.3385" y2="-131.3359" gradientTransform="matrix(-0.3532 0.9356 -0.9356 -0.3532 184.4059 573.718)">
	<stop  offset="0" style="stop-color:#FFFFFF"/>
	<stop  offset="1" style="stop-color:#AAAB3C;stop-opacity:0.6"/>
</linearGradient>
<path class="st7" d="M425,308.2c-1.9-0.7-2.8-2.8-2.1-4.7c0.7-1.9,2.8-2.8,4.7-2.1c1.9,0.7,2.8,2.8,2.1,4.7
	C429,308,426.9,309,425,308.2z"/>
</svg>
